<?xml version="1.0" encoding="UTF-8"?>
<svg width="16px" height="16px" viewBox="0 0 16 16" version="1.1" xmlns="http://www.w3.org/2000/svg" xmlns:xlink="http://www.w3.org/1999/xlink">
    <title>close_normal</title>
    <g id="页面-1" stroke="none" stroke-width="1" fill="none" fill-rule="evenodd">
        <g id="画板" transform="translate(-960.000000, -16.000000)">
            <g id="详情" transform="translate(960.000000, 16.000000)">
                <rect id="矩形" opacity="0.365211664" x="0" y="0" width="16" height="16"></rect>
                <path d="M8.07106781,3.07106781 C8.34721019,3.07106781 8.57106781,3.29492544 8.57106781,3.57106781 L8.57006781,7.57006781 L12.5710678,7.57106781 C12.8472102,7.57106781 13.0710678,7.79492544 13.0710678,8.07106781 C13.0710678,8.34721019 12.8472102,8.57106781 12.5710678,8.57106781 L8.57006781,8.57006781 L8.57106781,12.5710678 C8.57106781,12.8472102 8.34721019,13.0710678 8.07106781,13.0710678 C7.79492544,13.0710678 7.57106781,12.8472102 7.57106781,12.5710678 L7.57006781,8.57006781 L3.57106781,8.57106781 C3.29492544,8.57106781 3.07106781,8.34721019 3.07106781,8.07106781 C3.07106781,7.79492544 3.29492544,7.57106781 3.57106781,7.57106781 L7.57006781,7.57006781 L7.57106781,3.57106781 C7.57106781,3.29492544 7.79492544,3.07106781 8.07106781,3.07106781 Z" id="形状结合" fill="#B3B3B3" transform="translate(8.071068, 8.071068) rotate(-315.000000) translate(-8.071068, -8.071068) "></path>
            </g>
        </g>
    </g>
</svg>