<?xml version="1.0" encoding="UTF-8"?>
<svg width="20px" height="20px" viewBox="0 0 20 20" version="1.1" xmlns="http://www.w3.org/2000/svg" xmlns:xlink="http://www.w3.org/1999/xlink">
    <title>layer_preview_open_normal</title>
    <g id="页面-2" stroke="none" stroke-width="1" fill="none" fill-rule="evenodd" stroke-linejoin="round">
        <g id="图层" transform="translate(-143.000000, -773.000000)" stroke="#B3B3B3" stroke-width="1.5">
            <g id="预览-可见" transform="translate(143.000000, 773.000000)">
                <g id="预览-打开" transform="translate(3.000000, 5.800000)">
                    <path d="M7,8.4 C10.865995,8.4 14,4.2 14,4.2 C14,4.2 10.865995,0 7,0 C3.134005,0 0,4.2 0,4.2 C0,4.2 3.134005,8.4 7,8.4 Z" id="路径"></path>
                    <path d="M7,5.95 C7.96649,5.95 8.75,5.16649 8.75,4.2 C8.75,3.23351 7.96649,2.45 7,2.45 C6.03351,2.45 5.25,3.23351 5.25,4.2 C5.25,5.16649 6.03351,5.95 7,5.95 Z" id="路径"></path>
                </g>
            </g>
        </g>
    </g>
</svg>