<?xml version="1.0" encoding="UTF-8"?>
<svg width="20px" height="20px" viewBox="0 0 20 20" version="1.1" xmlns="http://www.w3.org/2000/svg" xmlns:xlink="http://www.w3.org/1999/xlink">
    <title>layer_preview_close_normal</title>
    <g id="页面-2" stroke="none" stroke-width="1" fill="none" fill-rule="evenodd" stroke-linejoin="round">
        <g id="同时选中多个元素" transform="translate(-212.000000, -381.000000)" stroke="#B3B3B3" stroke-width="1.5">
            <g id="左" transform="translate(0.000000, 80.000000)">
                <g id="图层选择" transform="translate(16.000000, 213.000000)">
                    <g id="编组-3" transform="translate(4.000000, 88.000000)">
                        <g id="不可见" transform="translate(192.000000, 0.000000)">
                            <g id="组" transform="translate(3.000000, 4.400000)">
                                <path d="M2.050251,3.6119318 C0.783503,4.6619318 0,5.7119318 0,5.7119318 C0,5.7119318 3.134005,9.9119318 7,9.9119318 C7.479465,9.9119318 7.94766,9.8473218 8.4,9.7341668 M5.61113,1.6869318 C6.06004,1.5754918 6.52449,1.5119318 7,1.5119318 C10.865995,1.5119318 14,5.7119318 14,5.7119318 C14,5.7119318 13.21649,6.7619318 11.949735,7.8119318" id="形状" stroke-linecap="round"></path>
                                <path d="M6.09335588,4.5293168 C5.841325,4.80410798 5.6875,5.17046533 5.6875,5.57273886 C5.6875,6.42552416 6.37883235,7.11685651 7.23161765,7.11685651 C7.65245147,7.11685651 8.03397206,6.94848592 8.3125,6.67545504" id="路径"></path>
                                <line x1="12.425" y1="11.1369318" x2="1.2880682" y2="5.79066467e-16" id="路径" stroke-linecap="round"></line>
                            </g>
                        </g>
                    </g>
                </g>
            </g>
        </g>
    </g>
</svg>