<?xml version="1.0" encoding="UTF-8"?>
<svg width="20px" height="20px" viewBox="0 0 20 20" version="1.1" xmlns="http://www.w3.org/2000/svg" xmlns:xlink="http://www.w3.org/1999/xlink">
    <title>scaleplate_adaptation_normal</title>
    <g id="页面-2" stroke="none" stroke-width="1" fill="none" fill-rule="evenodd" stroke-linecap="round">
        <g id="选中线性仪表" transform="translate(-262.000000, -82.000000)" stroke="#B3B3B3">
            <g id="标尺" transform="translate(260.000000, 80.000000)">
                <g id="恢复默认" transform="translate(2.000000, 2.000000)">
                    <g id="编组" transform="translate(4.000000, 4.000000)">
                        <g id="编组-2">
                            <polyline id="路径" stroke-linejoin="round" transform="translate(2.000000, 2.000000) scale(1, -1) translate(-2.000000, -2.000000) " points="0 0 0 4 4 4"></polyline>
                            <line x1="0" y1="0" x2="4.24264069" y2="4.24264069" id="路径-2"></line>
                        </g>
                        <g id="编组-2备份-2" transform="translate(9.881320, 2.121320) scale(-1, 1) translate(-9.881320, -2.121320) translate(7.760000, 0.000000)">
                            <polyline id="路径" stroke-linejoin="round" transform="translate(2.000000, 2.000000) scale(1, -1) translate(-2.000000, -2.000000) " points="0 0 0 4 4 4"></polyline>
                            <line x1="0" y1="0" x2="4.24264069" y2="4.24264069" id="路径-2"></line>
                        </g>
                        <g id="编组-2备份" transform="translate(2.121320, 9.881320) scale(1, -1) translate(-2.121320, -9.881320) translate(0.000000, 7.760000)">
                            <polyline id="路径" stroke-linejoin="round" transform="translate(2.000000, 2.000000) scale(1, -1) translate(-2.000000, -2.000000) " points="0 0 0 4 4 4"></polyline>
                            <line x1="0" y1="0" x2="4.24264069" y2="4.24264069" id="路径-2"></line>
                        </g>
                        <g id="编组-2备份-3" transform="translate(9.881320, 9.881320) scale(-1, -1) translate(-9.881320, -9.881320) translate(7.760000, 7.760000)">
                            <polyline id="路径" stroke-linejoin="round" transform="translate(2.000000, 2.000000) scale(1, -1) translate(-2.000000, -2.000000) " points="0 0 0 4 4 4"></polyline>
                            <line x1="0" y1="0" x2="4.24264069" y2="4.24264069" id="路径-2"></line>
                        </g>
                    </g>
                </g>
            </g>
        </g>
    </g>
</svg>